# xmcd
#
# Track frame offsets:
# 150
# 15340
# 37390
# 61080
# 72130
# 99190
# 136210
# 153605
# 170377
# 195917
# 230765
#
# Disc length: 3327 seconds
#
#
# Revision: 3
# Processed by: cddbd v1.5.2PL0 Copyright (c) Steve Scherf et al.
# Submitted via: FreeRIP 2.951 
#
DISCID=870cfd0b
DTITLE=Faith No More - The Real Thing
DYEAR=1989
DGENRE=Rock
TTITLE0=Right Out Of Nowhere
TTITLE1=Epic
TTITLE2=Falling To Pieces
TTITLE3=Surprise! You're Dead!
TTITLE4=Zombie Eaters
TTITLE5=The Real Thing
TTITLE6=Underwater Love
TTITLE7=The Morning After
TTITLE8=Woodpecker From Mars
TTITLE9=War Pigs
TTITLE10=Edge Of The World
EXTD=YEAR: 1989
EXTT0=
EXTT1=
EXTT2=
EXTT3=
EXTT4=
EXTT5=
EXTT6=
EXTT7=
EXTT8=
EXTT9=
EXTT10=
PLAYORDER=
